<svg width="32" height="32" viewBox="0 0 32 32" fill="none" xmlns="http://www.w3.org/2000/svg">
<path d="M25.5625 10H5.4375C5.05625 10 4.69062 10.154 4.42103 10.4281C4.15145 10.7022 4 11.0739 4 11.4615V27.5385C4 27.9261 4.15145 28.2978 4.42103 28.5719C4.69062 28.846 5.05625 29 5.4375 29H25.5625C25.9437 29 26.3094 28.846 26.579 28.5719C26.8486 28.2978 27 27.9261 27 27.5385V11.4615C27 11.0739 26.8486 10.7022 26.579 10.4281C26.3094 10.154 25.9437 10 25.5625 10ZM6 12H15.5H25V13.5213H6V12ZM6 27V15.4521H25V27H15.5H6Z" fill="black"/>
<path d="M15 24.75C15 24.3358 15.3358 24 15.75 24H20.25C20.6642 24 21 24.3358 21 24.75V24.75C21 25.1642 20.6642 25.5 20.25 25.5H15.75C15.3358 25.5 15 25.1642 15 24.75V24.75Z" fill="black"/>
<path d="M8.56002 17.6705C8.74559 17.3002 9.19623 17.1504 9.56655 17.336L15.3283 20.2234C15.6986 20.4089 15.8484 20.8596 15.6628 21.2299V21.2299C15.4773 21.6002 15.0266 21.75 14.6563 21.5644L8.89453 18.6771C8.52421 18.4915 8.37444 18.0408 8.56002 17.6705V17.6705Z" fill="black"/>
<path d="M8.65369 23.8269C8.48159 23.4501 8.64751 23.0052 9.02427 22.8331L14.5443 20.3116C14.9211 20.1395 15.3661 20.3054 15.5382 20.6822V20.6822C15.7103 21.059 15.5443 21.5039 15.1676 21.676L9.6475 24.1975C9.27073 24.3696 8.82579 24.2036 8.65369 23.8269V23.8269Z" fill="black"/>
<path d="M2 25C1.44772 25 1 24.5523 1 24L1 19C1 18.4477 1.44772 18 2 18V18C2.55228 18 3 18.4477 3 19L3 24C3 24.5523 2.55228 25 2 25V25Z" fill="black"/>
<path d="M29 25C28.4477 25 28 24.5523 28 24V19C28 18.4477 28.4477 18 29 18V18C29.5523 18 30 18.4477 30 19V24C30 24.5523 29.5523 25 29 25V25Z" fill="black"/>
<path d="M15 11C14.4477 11 14 10.5523 14 10V8C14 7.44772 14.4477 7 15 7V7C15.5523 7 16 7.44772 16 8V10C16 10.5523 15.5523 11 15 11V11Z" fill="black"/>
<circle cx="15" cy="6" r="2" fill="black"/>
</svg>
